<mxfile host="app.diagrams.net" agent="Mozilla/5.0 (Windows NT 10.0; Win64; x64) AppleWebKit/537.36 (KHTML, like Gecko) Chrome/128.0.0.0 Safari/537.36 OPR/114.0.0.0 (Edition std-1)" version="24.9.2">
  <diagram name="Página-1" id="uzQqJbbsDxN7Airdvley">
    <mxGraphModel dx="1009" dy="573" grid="1" gridSize="10" guides="1" tooltips="1" connect="1" arrows="1" fold="1" page="1" pageScale="1" pageWidth="827" pageHeight="1169" math="0" shadow="0">
      <root>
        <mxCell id="0" />
        <mxCell id="1" parent="0" />
        <mxCell id="WR5UAl1lV9jOWFmy0-z2-1" value="" style="whiteSpace=wrap;html=1;aspect=fixed;fillColor=#1ba1e2;fontColor=#ffffff;strokeColor=#006EAF;" vertex="1" parent="1">
          <mxGeometry x="50" y="40" width="590" height="590" as="geometry" />
        </mxCell>
        <mxCell id="WR5UAl1lV9jOWFmy0-z2-2" value="" style="endArrow=none;html=1;rounded=0;exitX=0;exitY=0.041;exitDx=0;exitDy=0;exitPerimeter=0;entryX=1.004;entryY=0.041;entryDx=0;entryDy=0;entryPerimeter=0;" edge="1" parent="1" source="WR5UAl1lV9jOWFmy0-z2-1" target="WR5UAl1lV9jOWFmy0-z2-1">
          <mxGeometry width="50" height="50" relative="1" as="geometry">
            <mxPoint x="390" y="350" as="sourcePoint" />
            <mxPoint x="612" y="70" as="targetPoint" />
          </mxGeometry>
        </mxCell>
        <mxCell id="WR5UAl1lV9jOWFmy0-z2-3" value="&lt;font color=&quot;#ffffff&quot; style=&quot;font-size: 13px;&quot;&gt;Modificar fichas medicas&lt;/font&gt;" style="text;html=1;align=center;verticalAlign=middle;whiteSpace=wrap;rounded=0;" vertex="1" parent="1">
          <mxGeometry x="40" y="35" width="190" height="30" as="geometry" />
        </mxCell>
        <mxCell id="WR5UAl1lV9jOWFmy0-z2-5" value="" style="ellipse;whiteSpace=wrap;html=1;aspect=fixed;fillColor=none;" vertex="1" parent="1">
          <mxGeometry x="570" y="40" width="20" height="20" as="geometry" />
        </mxCell>
        <mxCell id="WR5UAl1lV9jOWFmy0-z2-6" value="" style="ellipse;whiteSpace=wrap;html=1;aspect=fixed;fillColor=none;" vertex="1" parent="1">
          <mxGeometry x="590" y="40" width="20" height="20" as="geometry" />
        </mxCell>
        <mxCell id="WR5UAl1lV9jOWFmy0-z2-7" value="" style="ellipse;whiteSpace=wrap;html=1;aspect=fixed;fillColor=none;" vertex="1" parent="1">
          <mxGeometry x="610" y="40" width="20" height="20" as="geometry" />
        </mxCell>
        <mxCell id="WR5UAl1lV9jOWFmy0-z2-9" value="&lt;font color=&quot;#ffffff&quot; style=&quot;font-size: 18px;&quot;&gt;Grupo Sanguíneo&lt;/font&gt;" style="text;html=1;align=left;verticalAlign=middle;whiteSpace=wrap;rounded=0;" vertex="1" parent="1">
          <mxGeometry x="95" y="80" width="160" height="30" as="geometry" />
        </mxCell>
        <mxCell id="WR5UAl1lV9jOWFmy0-z2-11" value="" style="ellipse;whiteSpace=wrap;html=1;aspect=fixed;fillColor=none;strokeColor=#FFFFFF;" vertex="1" parent="1">
          <mxGeometry x="100" y="115" width="20" height="20" as="geometry" />
        </mxCell>
        <mxCell id="WR5UAl1lV9jOWFmy0-z2-12" value="" style="ellipse;whiteSpace=wrap;html=1;aspect=fixed;fillColor=none;strokeColor=#FFFFFF;" vertex="1" parent="1">
          <mxGeometry x="100" y="145" width="20" height="20" as="geometry" />
        </mxCell>
        <mxCell id="WR5UAl1lV9jOWFmy0-z2-13" value="" style="ellipse;whiteSpace=wrap;html=1;aspect=fixed;fillColor=none;strokeColor=#FFFFFF;" vertex="1" parent="1">
          <mxGeometry x="100" y="175" width="20" height="20" as="geometry" />
        </mxCell>
        <mxCell id="WR5UAl1lV9jOWFmy0-z2-14" value="" style="ellipse;whiteSpace=wrap;html=1;aspect=fixed;fillColor=none;strokeColor=#FFFFFF;" vertex="1" parent="1">
          <mxGeometry x="100" y="205" width="20" height="20" as="geometry" />
        </mxCell>
        <mxCell id="WR5UAl1lV9jOWFmy0-z2-17" value="&lt;font color=&quot;#ffffff&quot; style=&quot;font-size: 20px;&quot;&gt;A&lt;/font&gt;" style="text;html=1;align=center;verticalAlign=middle;whiteSpace=wrap;rounded=0;" vertex="1" parent="1">
          <mxGeometry x="105" y="110" width="60" height="30" as="geometry" />
        </mxCell>
        <mxCell id="WR5UAl1lV9jOWFmy0-z2-18" value="&lt;font style=&quot;font-size: 20px;&quot; color=&quot;#ffffff&quot;&gt;B&lt;/font&gt;" style="text;html=1;align=center;verticalAlign=middle;whiteSpace=wrap;rounded=0;" vertex="1" parent="1">
          <mxGeometry x="105" y="140" width="60" height="30" as="geometry" />
        </mxCell>
        <mxCell id="WR5UAl1lV9jOWFmy0-z2-19" value="&lt;font color=&quot;#ffffff&quot; style=&quot;font-size: 20px;&quot;&gt;AB&lt;/font&gt;" style="text;html=1;align=center;verticalAlign=middle;whiteSpace=wrap;rounded=0;" vertex="1" parent="1">
          <mxGeometry x="110" y="170" width="60" height="30" as="geometry" />
        </mxCell>
        <mxCell id="WR5UAl1lV9jOWFmy0-z2-20" value="&lt;font color=&quot;#ffffff&quot; style=&quot;font-size: 20px;&quot;&gt;O&lt;/font&gt;" style="text;html=1;align=center;verticalAlign=middle;whiteSpace=wrap;rounded=0;" vertex="1" parent="1">
          <mxGeometry x="105" y="200" width="60" height="30" as="geometry" />
        </mxCell>
        <mxCell id="WR5UAl1lV9jOWFmy0-z2-21" value="&lt;font color=&quot;#ffffff&quot; style=&quot;font-size: 15px;&quot;&gt;Alergias&lt;/font&gt;" style="text;html=1;align=center;verticalAlign=middle;whiteSpace=wrap;rounded=0;" vertex="1" parent="1">
          <mxGeometry x="100" y="240" width="60" height="30" as="geometry" />
        </mxCell>
        <mxCell id="WR5UAl1lV9jOWFmy0-z2-22" value="" style="rounded=0;whiteSpace=wrap;html=1;fillColor=#000000;strokeColor=#23445d;" vertex="1" parent="1">
          <mxGeometry x="100" y="270" width="480" height="50" as="geometry" />
        </mxCell>
        <mxCell id="WR5UAl1lV9jOWFmy0-z2-23" value="&lt;font color=&quot;#b3b3b3&quot;&gt;Ingrese texto&lt;/font&gt;" style="text;html=1;align=center;verticalAlign=middle;whiteSpace=wrap;rounded=0;" vertex="1" parent="1">
          <mxGeometry x="95" y="270" width="90" height="30" as="geometry" />
        </mxCell>
        <mxCell id="WR5UAl1lV9jOWFmy0-z2-24" value="&lt;font color=&quot;#ffffff&quot;&gt;&lt;span style=&quot;font-size: 15px;&quot;&gt;Antecedentes&lt;/span&gt;&lt;/font&gt;" style="text;html=1;align=center;verticalAlign=middle;whiteSpace=wrap;rounded=0;" vertex="1" parent="1">
          <mxGeometry x="120" y="330" width="60" height="30" as="geometry" />
        </mxCell>
        <mxCell id="WR5UAl1lV9jOWFmy0-z2-25" value="" style="rounded=0;whiteSpace=wrap;html=1;fillColor=#000000;strokeColor=#23445d;" vertex="1" parent="1">
          <mxGeometry x="100" y="360" width="480" height="50" as="geometry" />
        </mxCell>
        <mxCell id="WR5UAl1lV9jOWFmy0-z2-26" value="&lt;font color=&quot;#b3b3b3&quot;&gt;Ingrese texto&lt;/font&gt;" style="text;html=1;align=center;verticalAlign=middle;whiteSpace=wrap;rounded=0;" vertex="1" parent="1">
          <mxGeometry x="100" y="360" width="90" height="30" as="geometry" />
        </mxCell>
        <mxCell id="WR5UAl1lV9jOWFmy0-z2-27" value="&lt;font color=&quot;#ffffff&quot;&gt;&lt;span style=&quot;font-size: 15px;&quot;&gt;Observaciones&lt;/span&gt;&lt;/font&gt;" style="text;html=1;align=center;verticalAlign=middle;whiteSpace=wrap;rounded=0;" vertex="1" parent="1">
          <mxGeometry x="125" y="420" width="60" height="30" as="geometry" />
        </mxCell>
        <mxCell id="WR5UAl1lV9jOWFmy0-z2-28" value="" style="rounded=0;whiteSpace=wrap;html=1;fillColor=#000000;strokeColor=#23445d;" vertex="1" parent="1">
          <mxGeometry x="100" y="450" width="480" height="50" as="geometry" />
        </mxCell>
        <mxCell id="WR5UAl1lV9jOWFmy0-z2-29" value="&lt;font color=&quot;#b3b3b3&quot;&gt;Ingrese texto&lt;/font&gt;" style="text;html=1;align=center;verticalAlign=middle;whiteSpace=wrap;rounded=0;" vertex="1" parent="1">
          <mxGeometry x="100" y="450" width="90" height="30" as="geometry" />
        </mxCell>
        <mxCell id="WR5UAl1lV9jOWFmy0-z2-31" value="" style="rounded=1;whiteSpace=wrap;html=1;fillColor=#99CCFF;strokeColor=none;" vertex="1" parent="1">
          <mxGeometry x="240" y="530" width="70" height="35" as="geometry" />
        </mxCell>
        <mxCell id="WR5UAl1lV9jOWFmy0-z2-32" value="&lt;font color=&quot;#ffffff&quot;&gt;Guardar cambios&lt;/font&gt;" style="text;html=1;align=center;verticalAlign=middle;whiteSpace=wrap;rounded=0;" vertex="1" parent="1">
          <mxGeometry x="245" y="532.5" width="60" height="30" as="geometry" />
        </mxCell>
        <mxCell id="WR5UAl1lV9jOWFmy0-z2-33" value="" style="rounded=1;whiteSpace=wrap;html=1;fillColor=#99CCFF;strokeColor=none;" vertex="1" parent="1">
          <mxGeometry x="360" y="530" width="70" height="35" as="geometry" />
        </mxCell>
        <mxCell id="WR5UAl1lV9jOWFmy0-z2-34" value="&lt;font color=&quot;#ffffff&quot;&gt;Volver&lt;/font&gt;" style="text;html=1;align=center;verticalAlign=middle;whiteSpace=wrap;rounded=0;" vertex="1" parent="1">
          <mxGeometry x="365" y="532.5" width="60" height="30" as="geometry" />
        </mxCell>
      </root>
    </mxGraphModel>
  </diagram>
</mxfile>
